solid OpenSCAD_Model
  facet normal 0 -1 0
    outer loop
      vertex -0.0999994 -0.173204 0
      vertex 0.0999994 -0.173204 0.0499992
      vertex -0.0999994 -0.173204 0.0499992
    endloop
  endfacet
  facet normal 0 -1 -0
    outer loop
      vertex 0.0999994 -0.173204 0.0499992
      vertex -0.0999994 -0.173204 0
      vertex 0.0999994 -0.173204 0
    endloop
  endfacet
  facet normal 0.866023 -0.500005 0
    outer loop
      vertex 0.0999994 -0.173204 0.0499992
      vertex 0.2 0 0
      vertex 0.2 0 0.0499992
    endloop
  endfacet
  facet normal 0.866023 -0.500005 0
    outer loop
      vertex 0.2 0 0
      vertex 0.0999994 -0.173204 0.0499992
      vertex 0.0999994 -0.173204 0
    endloop
  endfacet
  facet normal 0 1 -0
    outer loop
      vertex 0.0999994 0.173204 0
      vertex -0.0999994 0.173204 0.0499992
      vertex 0.0999994 0.173204 0.0499992
    endloop
  endfacet
  facet normal 0 1 0
    outer loop
      vertex -0.0999994 0.173204 0.0499992
      vertex 0.0999994 0.173204 0
      vertex -0.0999994 0.173204 0
    endloop
  endfacet
  facet normal 0.866023 0.500005 0
    outer loop
      vertex 0.2 0 0.0499992
      vertex 0.0999994 0.173204 0
      vertex 0.0999994 0.173204 0.0499992
    endloop
  endfacet
  facet normal 0.866023 0.500005 0
    outer loop
      vertex 0.0999994 0.173204 0
      vertex 0.2 0 0.0499992
      vertex 0.2 0 0
    endloop
  endfacet
  facet normal -0.866023 0.500005 0
    outer loop
      vertex -0.2 0 0
      vertex -0.0999994 0.173204 0.0499992
      vertex -0.0999994 0.173204 0
    endloop
  endfacet
  facet normal -0.866023 0.500005 0
    outer loop
      vertex -0.0999994 0.173204 0.0499992
      vertex -0.2 0 0
      vertex -0.2 0 0.0499992
    endloop
  endfacet
  facet normal -0.866023 -0.500005 0
    outer loop
      vertex -0.0999994 -0.173204 0
      vertex -0.2 0 0.0499992
      vertex -0.2 0 0
    endloop
  endfacet
  facet normal -0.866023 -0.500005 0
    outer loop
      vertex -0.2 0 0.0499992
      vertex -0.0999994 -0.173204 0
      vertex -0.0999994 -0.173204 0.0499992
    endloop
  endfacet
  facet normal 0 0 1
    outer loop
      vertex 0.0499992 -0.00349949 0.0499992
      vertex 0.0484518 -0.00806665 0.0499992
      vertex 0.0499992 -0.010919 0.0499992
    endloop
  endfacet
  facet normal -0 0 1
    outer loop
      vertex 0.0479763 -0.00701675 0.0499992
      vertex 0.0484518 -0.00806665 0.0499992
      vertex 0.0499992 -0.00349949 0.0499992
    endloop
  endfacet
  facet normal 0 0 1
    outer loop
      vertex 0.0484518 -0.00806665 0.0499992
      vertex 0.0479763 -0.00701675 0.0499992
      vertex 0.0479279 -0.00710096 0.0499992
    endloop
  endfacet
  facet normal -0 0 1
    outer loop
      vertex 0.0249996 0.0399665 0.0499992
      vertex 0.2 0 0.0499992
      vertex 0.0999994 0.173204 0.0499992
    endloop
  endfacet
  facet normal 0 0 1
    outer loop
      vertex 0.0499992 -0.010919 0.0499992
      vertex 0.2 0 0.0499992
      vertex 0.0499992 -0.00349949 0.0499992
    endloop
  endfacet
  facet normal 0 0 1
    outer loop
      vertex 0.2 0 0.0499992
      vertex 0.0480067 -3.51164e-05 0.0499992
      vertex 0.0499992 -0.00349949 0.0499992
    endloop
  endfacet
  facet normal 0 0 1
    outer loop
      vertex 0.2 0 0.0499992
      vertex 0.0249996 0.0399665 0.0499992
      vertex 0.0480067 -3.51164e-05 0.0499992
    endloop
  endfacet
  facet normal 0 0 1
    outer loop
      vertex 0.0999994 0.173204 0.0499992
      vertex -0.0249996 0.0399665 0.0499992
      vertex 0.0249996 0.0399665 0.0499992
    endloop
  endfacet
  facet normal 0 0 1
    outer loop
      vertex -0.0480067 -3.51164e-05 0.0499992
      vertex -0.2 0 0.0499992
      vertex -0.0499992 -0.00349949 0.0499992
    endloop
  endfacet
  facet normal 0 0 1
    outer loop
      vertex -0.0249996 0.0399665 0.0499992
      vertex -0.2 0 0.0499992
      vertex -0.0480067 -3.51164e-05 0.0499992
    endloop
  endfacet
  facet normal 0 0 1
    outer loop
      vertex -0.2 0 0.0499992
      vertex -0.0249996 0.0399665 0.0499992
      vertex -0.0999994 0.173204 0.0499992
    endloop
  endfacet
  facet normal -0 0 1
    outer loop
      vertex -0.0999994 0.173204 0.0499992
      vertex -0.0249996 0.0399665 0.0499992
      vertex 0.0999994 0.173204 0.0499992
    endloop
  endfacet
  facet normal 0 0 1
    outer loop
      vertex 0.0483511 -0.013957 0.0499992
      vertex 0.2 0 0.0499992
      vertex 0.0499992 -0.010919 0.0499992
    endloop
  endfacet
  facet normal 0 0 1
    outer loop
      vertex 0.2 0 0.0499992
      vertex 0.0483511 -0.013957 0.0499992
      vertex 0.0999994 -0.173204 0.0499992
    endloop
  endfacet
  facet normal -0 0 1
    outer loop
      vertex 0.0249996 -0.0569987 0.0499992
      vertex 0.0999994 -0.173204 0.0499992
      vertex 0.0483511 -0.013957 0.0499992
    endloop
  endfacet
  facet normal -0 0 1
    outer loop
      vertex -0.0249996 -0.0569987 0.0499992
      vertex 0.0999994 -0.173204 0.0499992
      vertex 0.0249996 -0.0569987 0.0499992
    endloop
  endfacet
  facet normal 0 0 1
    outer loop
      vertex -0.0249996 -0.0569987 0.0499992
      vertex -0.0999994 -0.173204 0.0499992
      vertex 0.0999994 -0.173204 0.0499992
    endloop
  endfacet
  facet normal 0 0 1
    outer loop
      vertex -0.0483511 -0.013957 0.0499992
      vertex -0.0999994 -0.173204 0.0499992
      vertex -0.0249996 -0.0569987 0.0499992
    endloop
  endfacet
  facet normal 0 0 1
    outer loop
      vertex -0.2 0 0.0499992
      vertex -0.0483511 -0.013957 0.0499992
      vertex -0.0499992 -0.010919 0.0499992
    endloop
  endfacet
  facet normal 0 0 1
    outer loop
      vertex -0.0499992 -0.00349949 0.0499992
      vertex -0.2 0 0.0499992
      vertex -0.0499992 -0.010919 0.0499992
    endloop
  endfacet
  facet normal 0 0 1
    outer loop
      vertex -0.0483511 -0.013957 0.0499992
      vertex -0.2 0 0.0499992
      vertex -0.0999994 -0.173204 0.0499992
    endloop
  endfacet
  facet normal 0 0 1
    outer loop
      vertex -0.0479763 -0.00701675 0.0499992
      vertex -0.0484518 -0.00806665 0.0499992
      vertex -0.0479279 -0.00710096 0.0499992
    endloop
  endfacet
  facet normal 0 0 1
    outer loop
      vertex -0.0499992 -0.00349949 0.0499992
      vertex -0.0484518 -0.00806665 0.0499992
      vertex -0.0479763 -0.00701675 0.0499992
    endloop
  endfacet
  facet normal 0 0 1
    outer loop
      vertex -0.0484518 -0.00806665 0.0499992
      vertex -0.0499992 -0.00349949 0.0499992
      vertex -0.0499992 -0.010919 0.0499992
    endloop
  endfacet
  facet normal 0 0 -1
    outer loop
      vertex 0.0999994 -0.173204 0
      vertex 0.0999994 0.173204 0
      vertex 0.2 0 0
    endloop
  endfacet
  facet normal 0 0 -1
    outer loop
      vertex -0.0999994 -0.173204 0
      vertex 0.0999994 0.173204 0
      vertex 0.0999994 -0.173204 0
    endloop
  endfacet
  facet normal 0 0 -1
    outer loop
      vertex -0.0999994 -0.173204 0
      vertex -0.0999994 0.173204 0
      vertex 0.0999994 0.173204 0
    endloop
  endfacet
  facet normal 0 -0 -1
    outer loop
      vertex -0.0999994 0.173204 0
      vertex -0.0999994 -0.173204 0
      vertex -0.2 0 0
    endloop
  endfacet
  facet normal 0.866025 0.498098 0.0435765
    outer loop
      vertex 0.0249996 0.0399665 0.0499992
      vertex 0.0249996 -0.000440598 0.51187
      vertex 0.0480067 -3.51164e-05 0.0499992
    endloop
  endfacet
  facet normal -0.86603 0.498089 0.0435767
    outer loop
      vertex -0.0499992 -0.00349949 0.0499992
      vertex -0.0249996 -0.000440598 0.51187
      vertex -0.0480067 -3.51164e-05 0.0499992
    endloop
  endfacet
  facet normal -0.866029 0.498091 0.0435766
    outer loop
      vertex -0.0249996 -0.000440598 0.51187
      vertex -0.0499992 -0.00349949 0.0499992
      vertex -0.0499992 -0.0435772 0.508097
    endloop
  endfacet
  facet normal 0.86603 0.498089 0.0435767
    outer loop
      vertex 0.0249996 -0.000440598 0.51187
      vertex 0.0499992 -0.00349949 0.0499992
      vertex 0.0480067 -3.51164e-05 0.0499992
    endloop
  endfacet
  facet normal 0.866029 0.498091 0.0435766
    outer loop
      vertex 0.0499992 -0.00349949 0.0499992
      vertex 0.0249996 -0.000440598 0.51187
      vertex 0.0499992 -0.0435772 0.508097
    endloop
  endfacet
  facet normal 0 0.996195 0.0871528
    outer loop
      vertex 0.0249996 0.0399665 0.0499992
      vertex -0.0249996 -0.000440598 0.51187
      vertex 0.0249996 -0.000440598 0.51187
    endloop
  endfacet
  facet normal 0 0.996195 0.0871528
    outer loop
      vertex -0.0249996 -0.000440598 0.51187
      vertex 0.0249996 0.0399665 0.0499992
      vertex -0.0249996 0.0399665 0.0499992
    endloop
  endfacet
  facet normal -0.866032 -0.498086 -0.0435761
    outer loop
      vertex -0.0479763 -0.00701675 0.0499992
      vertex -0.0499992 -0.0435772 0.508097
      vertex -0.0499992 -0.00349949 0.0499992
    endloop
  endfacet
  facet normal -0.866029 -0.498091 -0.0435765
    outer loop
      vertex -0.0499992 -0.0435772 0.508097
      vertex -0.0479763 -0.00701675 0.0499992
      vertex -0.0249996 -0.0867138 0.504323
    endloop
  endfacet
  facet normal -1.99277e-05 -0.0871451 0.996196
    outer loop
      vertex 0.0249996 -0.000440598 0.51187
      vertex 0.0249996 -0.0867138 0.504323
      vertex 0.0499992 -0.0435772 0.508097
    endloop
  endfacet
  facet normal 0 -0.0871451 0.996196
    outer loop
      vertex -0.0249996 -0.000440598 0.51187
      vertex 0.0249996 -0.0867138 0.504323
      vertex 0.0249996 -0.000440598 0.51187
    endloop
  endfacet
  facet normal 0 -0.0871451 0.996196
    outer loop
      vertex -0.0249996 -0.000440598 0.51187
      vertex -0.0249996 -0.0867138 0.504323
      vertex 0.0249996 -0.0867138 0.504323
    endloop
  endfacet
  facet normal 1.99277e-05 -0.0871451 0.996196
    outer loop
      vertex -0.0249996 -0.0867138 0.504323
      vertex -0.0249996 -0.000440598 0.51187
      vertex -0.0499992 -0.0435772 0.508097
    endloop
  endfacet
  facet normal 0.866178 -0.497839 -0.0435086
    outer loop
      vertex 0.0479763 -0.00701675 0.0499992
      vertex 0.0249996 -0.0729535 0.347043
      vertex 0.0479279 -0.00710096 0.0499992
    endloop
  endfacet
  facet normal 0.866024 -0.498099 -0.0435783
    outer loop
      vertex 0.0249996 -0.0729535 0.347043
      vertex 0.0479763 -0.00701675 0.0499992
      vertex 0.0249996 -0.0867138 0.504323
    endloop
  endfacet
  facet normal -0.866025 0.498098 0.0435765
    outer loop
      vertex -0.0249996 0.0399665 0.0499992
      vertex -0.0480067 -3.51164e-05 0.0499992
      vertex -0.0249996 -0.000440598 0.51187
    endloop
  endfacet
  facet normal 0.866032 -0.498086 -0.0435761
    outer loop
      vertex 0.0499992 -0.0435772 0.508097
      vertex 0.0479763 -0.00701675 0.0499992
      vertex 0.0499992 -0.00349949 0.0499992
    endloop
  endfacet
  facet normal 0.866029 -0.498091 -0.0435765
    outer loop
      vertex 0.0479763 -0.00701675 0.0499992
      vertex 0.0499992 -0.0435772 0.508097
      vertex 0.0249996 -0.0867138 0.504323
    endloop
  endfacet
  facet normal -0.866178 -0.497839 -0.0435086
    outer loop
      vertex -0.0249996 -0.0729535 0.347043
      vertex -0.0479763 -0.00701675 0.0499992
      vertex -0.0479279 -0.00710096 0.0499992
    endloop
  endfacet
  facet normal -0.866024 -0.498099 -0.0435783
    outer loop
      vertex -0.0479763 -0.00701675 0.0499992
      vertex -0.0249996 -0.0729535 0.347043
      vertex -0.0249996 -0.0867138 0.504323
    endloop
  endfacet
  facet normal 0 -0.996195 -0.0871563
    outer loop
      vertex -0.0249996 -0.0729535 0.347043
      vertex 0.0249996 -0.0867138 0.504323
      vertex -0.0249996 -0.0867138 0.504323
    endloop
  endfacet
  facet normal 0 -0.996195 -0.0871563
    outer loop
      vertex 0.0249996 -0.0867138 0.504323
      vertex -0.0249996 -0.0729535 0.347043
      vertex 0.0249996 -0.0729535 0.347043
    endloop
  endfacet
  facet normal 0.866033 0.469834 0.171007
    outer loop
      vertex 0.0249996 -0.0729535 0.347043
      vertex 0.0484518 -0.00806665 0.0499992
      vertex 0.0479279 -0.00710096 0.0499992
    endloop
  endfacet
  facet normal 0.866031 0.469838 0.171007
    outer loop
      vertex 0.0484518 -0.00806665 0.0499992
      vertex 0.0249996 -0.0729535 0.347043
      vertex 0.0249996 -0.13032 0.504656
    endloop
  endfacet
  facet normal -0.866038 0.469826 0.171004
    outer loop
      vertex -0.0499992 -0.010919 0.0499992
      vertex -0.0249996 -0.13032 0.504656
      vertex -0.0484518 -0.00806665 0.0499992
    endloop
  endfacet
  facet normal -0.86603 0.46984 0.171007
    outer loop
      vertex -0.0249996 -0.13032 0.504656
      vertex -0.0499992 -0.010919 0.0499992
      vertex -0.0499992 -0.17101 0.489846
    endloop
  endfacet
  facet normal 0 -0.342021 0.939692
    outer loop
      vertex -0.0249996 -0.13032 0.504656
      vertex 0.0499992 -0.17101 0.489846
      vertex 0.0249996 -0.13032 0.504656
    endloop
  endfacet
  facet normal 0 -0.342021 0.939692
    outer loop
      vertex 0.0499992 -0.17101 0.489846
      vertex -0.0249996 -0.13032 0.504656
      vertex -0.0499992 -0.17101 0.489846
    endloop
  endfacet
  facet normal 0.866038 0.469826 0.171004
    outer loop
      vertex 0.0249996 -0.13032 0.504656
      vertex 0.0499992 -0.010919 0.0499992
      vertex 0.0484518 -0.00806665 0.0499992
    endloop
  endfacet
  facet normal 0.86603 0.46984 0.171007
    outer loop
      vertex 0.0499992 -0.010919 0.0499992
      vertex 0.0249996 -0.13032 0.504656
      vertex 0.0499992 -0.17101 0.489846
    endloop
  endfacet
  facet normal 0.866025 -0.469846 -0.17101
    outer loop
      vertex 0.0483511 -0.013957 0.0499992
      vertex 0.0249996 -0.211699 0.475036
      vertex 0.0249996 -0.0569987 0.0499992
    endloop
  endfacet
  facet normal 0 0.939693 0.34202
    outer loop
      vertex 0.0249996 -0.0729535 0.347043
      vertex -0.0249996 -0.13032 0.504656
      vertex 0.0249996 -0.13032 0.504656
    endloop
  endfacet
  facet normal 0 0.939693 0.34202
    outer loop
      vertex -0.0249996 -0.13032 0.504656
      vertex 0.0249996 -0.0729535 0.347043
      vertex -0.0249996 -0.0729535 0.347043
    endloop
  endfacet
  facet normal -0.86604 -0.469822 -0.171001
    outer loop
      vertex -0.0483511 -0.013957 0.0499992
      vertex -0.0499992 -0.17101 0.489846
      vertex -0.0499992 -0.010919 0.0499992
    endloop
  endfacet
  facet normal -0.866025 -0.469847 -0.17101
    outer loop
      vertex -0.0499992 -0.17101 0.489846
      vertex -0.0483511 -0.013957 0.0499992
      vertex -0.0249996 -0.211699 0.475036
    endloop
  endfacet
  facet normal 0 -0.939693 -0.342019
    outer loop
      vertex -0.0249996 -0.0569987 0.0499992
      vertex 0.0249996 -0.211699 0.475036
      vertex -0.0249996 -0.211699 0.475036
    endloop
  endfacet
  facet normal 0 -0.939693 -0.342019
    outer loop
      vertex 0.0249996 -0.211699 0.475036
      vertex -0.0249996 -0.0569987 0.0499992
      vertex 0.0249996 -0.0569987 0.0499992
    endloop
  endfacet
  facet normal 0 -0.342029 0.93969
    outer loop
      vertex 0.0499992 -0.17101 0.489846
      vertex -0.0249996 -0.211699 0.475036
      vertex 0.0249996 -0.211699 0.475036
    endloop
  endfacet
  facet normal 0 -0.342029 0.93969
    outer loop
      vertex -0.0249996 -0.211699 0.475036
      vertex 0.0499992 -0.17101 0.489846
      vertex -0.0499992 -0.17101 0.489846
    endloop
  endfacet
  facet normal -0.866033 0.469834 0.171007
    outer loop
      vertex -0.0484518 -0.00806665 0.0499992
      vertex -0.0249996 -0.0729535 0.347043
      vertex -0.0479279 -0.00710096 0.0499992
    endloop
  endfacet
  facet normal -0.866031 0.469838 0.171007
    outer loop
      vertex -0.0249996 -0.0729535 0.347043
      vertex -0.0484518 -0.00806665 0.0499992
      vertex -0.0249996 -0.13032 0.504656
    endloop
  endfacet
  facet normal -0.866025 -0.469846 -0.17101
    outer loop
      vertex -0.0249996 -0.211699 0.475036
      vertex -0.0483511 -0.013957 0.0499992
      vertex -0.0249996 -0.0569987 0.0499992
    endloop
  endfacet
  facet normal 0.86604 -0.469822 -0.171001
    outer loop
      vertex 0.0499992 -0.17101 0.489846
      vertex 0.0483511 -0.013957 0.0499992
      vertex 0.0499992 -0.010919 0.0499992
    endloop
  endfacet
  facet normal 0.866025 -0.469847 -0.17101
    outer loop
      vertex 0.0483511 -0.013957 0.0499992
      vertex 0.0499992 -0.17101 0.489846
      vertex 0.0249996 -0.211699 0.475036
    endloop
  endfacet
endsolid OpenSCAD_Model
